<?xml version="1.0" encoding="UTF-8"?>
<svg id="Layer_1" data-name="Layer 1" xmlns="http://www.w3.org/2000/svg" xmlns:xlink="http://www.w3.org/1999/xlink" viewBox="0 0 573.99 429.32">
  <defs>
    <style>
      .cls-1, .cls-2, .cls-3, .cls-4, .cls-5 {
        fill: #fff;
      }

      .cls-6 {
        stroke: #000;
        stroke-miterlimit: 10;
      }

      .cls-6, .cls-7 {
        fill: none;
      }

      .cls-2 {
        font-size: 23.22px;
      }

      .cls-2, .cls-4 {
        font-family: Raleway-SemiBold, Raleway;
        font-weight: 600;
      }

      .cls-3 {
        opacity: .5;
      }

      .cls-8 {
        fill: #196f64;
      }

      .cls-9 {
        clip-path: url(#clippath);
      }

      .cls-4 {
        font-size: 45.69px;
      }

      .cls-5 {
        font-family: Raleway-Medium, Raleway;
        font-size: 8.45px;
        font-weight: 500;
      }
    </style>
    <clipPath id="clippath">
      <rect class="cls-7" x=".5" y="48.41" width="285" height="380"/>
    </clipPath>
  </defs>
  <rect class="cls-8" x="283.7" y="48.82" width="290.3" height="380"/>
  <rect class="cls-8" x=".5" y=".5" width="285" height="51.19"/>
  <rect class="cls-8" x=".5" y="48" width="285" height="380.82"/>
  <line class="cls-6" x1=".5" y1="428.82" x2="285.5" y2="428.82"/>
  <line class="cls-6" x1=".5" y1="48.82" x2="285.5" y2="48.82"/>
  <line class="cls-6" x1=".5" y1=".5" x2="285.5" y2=".5"/>
  <line class="cls-6" x1=".5" y1="428.82" x2=".5" y2="48.82"/>
  <line class="cls-6" x1="285.5" y1="428.82" x2="285.5" y2="48.82"/>
  <line class="cls-6" x1="288.99" y1="428.82" x2="573.99" y2="428.82"/>
  <line class="cls-6" x1="288.99" y1="48.82" x2="573.99" y2="48.82"/>
  <line class="cls-6" x1="288.99" y1="428.82" x2="288.99" y2="48.82"/>
  <line class="cls-6" x1="285.5" y1="428.82" x2="290.25" y2="428.82"/>
  <line class="cls-6" x1="285.5" y1="48.82" x2="290.25" y2="48.82"/>
  <line class="cls-6" x1=".5" y1="48" x2=".5" y2=".5"/>
  <line class="cls-6" x1="285.5" y1="48" x2="285.5" y2=".5"/>
  <g class="cls-9">
    <path class="cls-3" d="M302.35,332l-46.45-77.02c45.94-41.92,70.17-63.4,97.94-74.93v-4.19h-66.64v4.19c20.19,13.62,8.08,34.06-43.92,82.26l-53.51,48.73V50.1h-3.53l-47.46,11v4.19c9.59,1.57,11.11,3.67,11.11,22.01v170.92C132.73,192.46-12.66,203.82-6.12,138.8c2.52-21.48,21.71-41.39,56.04-41.39,28.78,0,61.09,32.49,76.74,77.02h2.52l10.1-48.21c-20.19-16.24-54.52-33.53-80.78-33.53-55.03,0-73.2,30.91-77.24,64.97-12.12,102.7,164.07,72.31,154.48,140.95-3.03,22.53-30.29,41.92-66.64,41.92-44.93,0-82.79-43.49-99.96-80.17h-2.52l-10.6,52.4c27.26,20.96,57.55,35.11,98.45,35.11,51.74,0,87.41-25.89,95.42-62v104.81c0,18.34-3.53,28.82-11.11,33.53v3.67h62.6v-3.67c-8.08-4.72-11.61-15.19-11.61-33.53v-74.93l40.89-37.2,57.05,96.41c15.15,26.72,20.7,39.82,9.09,49.25v3.67h76.74v-3.67c-22.72-11-36.35-33.53-71.18-92.22"/>
  </g>
  <g>
    <path class="cls-1" d="M114.16,414.7c-.34,0-.68-.05-1.01-.16s-.61-.26-.85-.46l.31-.48c.25,.19,.5,.33,.75,.43,.25,.09,.51,.14,.79,.14,.31,0,.55-.06,.73-.18,.18-.12,.27-.29,.27-.51,0-.1-.02-.19-.07-.26-.05-.07-.12-.14-.22-.19s-.22-.1-.37-.15c-.15-.04-.33-.09-.53-.14-.25-.06-.47-.13-.66-.19-.18-.06-.34-.13-.45-.21-.12-.08-.21-.18-.26-.29s-.08-.25-.08-.42c0-.21,.04-.4,.13-.56,.08-.16,.2-.3,.34-.41,.15-.11,.32-.19,.51-.25,.2-.06,.41-.09,.64-.09,.32,0,.62,.05,.89,.15s.51,.24,.7,.41l-.32,.43c-.18-.16-.38-.27-.6-.35-.22-.08-.45-.12-.68-.12-.26,0-.48,.06-.66,.17-.18,.11-.27,.29-.27,.53,0,.1,.02,.18,.05,.24s.09,.12,.17,.17c.08,.05,.18,.09,.31,.13,.13,.04,.28,.08,.46,.12,.28,.06,.53,.13,.73,.2,.21,.07,.38,.15,.52,.24,.14,.09,.24,.2,.31,.32,.07,.12,.1,.28,.1,.45,0,.39-.15,.71-.45,.94-.3,.23-.71,.35-1.22,.35Z"/>
    <path class="cls-1" d="M119.67,414.62l-1.46-2.07-.81,.76v1.3h-.71v-5.92h.71v3.89l2.17-2.2h.79l-1.69,1.75,1.77,2.47h-.77Z"/>
    <path class="cls-1" d="M121.05,409.6v-.89h.71v.89h-.71Zm0,5.03v-4.23h.71v4.23h-.71Z"/>
    <path class="cls-1" d="M126.59,414.62h-.71v-2.37c0-.45-.07-.78-.21-.99-.14-.21-.35-.31-.63-.31-.15,0-.29,.03-.44,.09-.15,.06-.28,.13-.41,.23-.13,.1-.24,.21-.34,.35-.1,.13-.17,.28-.22,.45v2.55h-.71v-4.23h.65v.91c.17-.3,.41-.54,.73-.71,.32-.18,.66-.27,1.03-.27,.24,0,.45,.04,.61,.13,.16,.09,.29,.21,.39,.37,.1,.16,.17,.35,.21,.56,.04,.22,.06,.45,.06,.71v2.53Z"/>
    <path class="cls-1" d="M129.98,414.7c-.35,0-.66-.09-.93-.26-.27-.17-.48-.39-.64-.66v2.56h-.71v-5.96h.63v.79c.17-.26,.38-.47,.65-.63,.27-.16,.56-.24,.89-.24,.29,0,.56,.06,.8,.18s.45,.28,.63,.48c.18,.2,.32,.44,.42,.7,.1,.26,.15,.54,.15,.83,0,.3-.05,.59-.14,.86-.09,.27-.22,.5-.39,.7-.17,.2-.37,.35-.6,.47s-.49,.17-.77,.17Zm-.22-.62c.21,0,.4-.04,.57-.13,.17-.09,.32-.21,.44-.36,.12-.15,.21-.32,.28-.51,.06-.19,.1-.38,.1-.58,0-.21-.04-.41-.11-.6s-.18-.36-.31-.5c-.13-.14-.28-.26-.46-.34-.18-.08-.37-.13-.57-.13-.13,0-.26,.03-.4,.08s-.27,.12-.39,.2c-.12,.08-.23,.18-.32,.3s-.15,.24-.17,.37v1.21c.06,.14,.13,.27,.23,.39,.09,.12,.2,.23,.32,.32,.12,.09,.25,.16,.38,.21,.13,.05,.28,.08,.42,.08Z"/>
    <path class="cls-1" d="M134.62,414.7c-.32,0-.61-.06-.88-.17s-.49-.27-.68-.47c-.19-.2-.34-.43-.44-.7s-.16-.55-.16-.85,.05-.58,.16-.84c.11-.26,.25-.5,.45-.7s.42-.36,.69-.47,.56-.17,.88-.17,.61,.06,.87,.18,.49,.28,.67,.47c.18,.2,.33,.43,.43,.69,.1,.26,.15,.53,.15,.81,0,.06,0,.11,0,.16,0,.05,0,.09-.01,.11h-3.51c.02,.21,.06,.4,.15,.58,.08,.17,.19,.32,.32,.45s.28,.22,.44,.29c.16,.07,.34,.11,.52,.11,.13,0,.26-.02,.38-.05,.12-.04,.24-.08,.35-.14s.2-.13,.29-.22c.08-.09,.15-.18,.19-.29l.62,.17c-.07,.16-.17,.3-.29,.43-.12,.13-.26,.24-.42,.34s-.34,.17-.53,.22c-.19,.05-.4,.08-.61,.08Zm1.45-2.48c-.02-.2-.07-.38-.15-.56s-.19-.31-.32-.43-.27-.21-.44-.28c-.17-.07-.35-.1-.53-.1s-.37,.03-.54,.1c-.17,.07-.31,.16-.44,.28-.13,.12-.23,.27-.31,.43-.08,.17-.13,.35-.14,.55h2.87Z"/>
    <path class="cls-1" d="M139.78,411.02c-.36,.01-.67,.1-.94,.28-.27,.17-.47,.41-.58,.72v2.61h-.71v-4.23h.66v.98c.15-.29,.34-.53,.58-.71,.24-.18,.49-.28,.76-.3h.14s.07,0,.1,0v.65Z"/>
    <path class="cls-1" d="M140.71,414.62v-3.67h-.58v-.56h.58v-.09c0-.52,.12-.94,.35-1.23s.55-.45,.95-.45c.17,0,.33,.02,.49,.07,.16,.05,.31,.11,.44,.19l-.18,.53c-.08-.05-.17-.1-.28-.13-.11-.03-.22-.05-.33-.05-.24,0-.42,.09-.54,.27s-.19,.44-.19,.78v.11h1.13v.56h-1.13v3.67h-.71Z"/>
    <path class="cls-1" d="M145.04,414.7c-.32,0-.61-.06-.88-.17s-.49-.27-.68-.47c-.19-.2-.34-.43-.44-.7s-.16-.55-.16-.85,.05-.58,.16-.84c.11-.26,.25-.5,.45-.7s.42-.36,.69-.47,.56-.17,.88-.17,.61,.06,.87,.18,.49,.28,.67,.47c.18,.2,.33,.43,.43,.69,.1,.26,.15,.53,.15,.81,0,.06,0,.11,0,.16,0,.05,0,.09-.01,.11h-3.51c.02,.21,.06,.4,.15,.58,.08,.17,.19,.32,.32,.45s.28,.22,.44,.29c.16,.07,.34,.11,.52,.11,.13,0,.26-.02,.38-.05,.12-.04,.24-.08,.35-.14s.2-.13,.29-.22c.08-.09,.15-.18,.19-.29l.62,.17c-.07,.16-.17,.3-.29,.43-.12,.13-.26,.24-.42,.34-.16,.09-.34,.17-.53,.22-.19,.05-.4,.08-.61,.08Zm1.45-2.48c-.02-.2-.07-.38-.15-.56s-.19-.31-.32-.43-.27-.21-.44-.28c-.17-.07-.35-.1-.53-.1s-.37,.03-.54,.1c-.17,.07-.31,.16-.44,.28-.13,.12-.23,.27-.31,.43-.08,.17-.13,.35-.14,.55h2.87Z"/>
    <path class="cls-1" d="M147.67,412.5c0-.3,.05-.58,.15-.84,.1-.26,.25-.5,.44-.69,.19-.2,.41-.35,.68-.47,.26-.12,.56-.17,.88-.17,.42,0,.78,.09,1.09,.28,.31,.19,.54,.44,.69,.75l-.7,.22c-.11-.2-.26-.36-.45-.47-.19-.11-.41-.17-.65-.17-.19,0-.38,.04-.55,.12-.17,.08-.32,.19-.45,.33-.12,.14-.22,.31-.3,.49-.07,.19-.11,.4-.11,.62s.04,.43,.11,.62c.08,.19,.18,.36,.3,.51,.13,.14,.28,.26,.45,.34s.35,.12,.55,.12c.12,0,.25-.02,.37-.05,.12-.04,.23-.08,.33-.14,.1-.06,.19-.13,.26-.21,.08-.08,.13-.16,.16-.26l.7,.21c-.06,.16-.16,.3-.27,.43s-.25,.24-.41,.33c-.16,.09-.33,.16-.52,.22-.19,.05-.39,.08-.6,.08-.32,0-.61-.06-.88-.18s-.49-.28-.68-.48c-.19-.2-.34-.43-.44-.7-.11-.27-.16-.55-.16-.85Z"/>
    <path class="cls-1" d="M154.63,414.41s-.1,.05-.17,.08c-.07,.03-.15,.06-.24,.09-.09,.03-.19,.05-.29,.07-.11,.02-.21,.03-.33,.03-.26,0-.48-.07-.67-.21-.19-.14-.28-.37-.28-.67v-2.85h-.58v-.56h.58v-1.41h.71v1.41h.95v.56h-.95v2.63c.01,.16,.06,.27,.15,.34,.09,.07,.2,.11,.32,.11,.14,0,.27-.02,.39-.07s.2-.08,.24-.11l.17,.57Z"/>
    <path class="cls-1" d="M155.3,409.6v-.89h.71v.89h-.71Zm0,5.03v-4.23h.71v4.23h-.71Z"/>
    <path class="cls-1" d="M159.01,414.7c-.32,0-.61-.06-.87-.18s-.49-.28-.67-.48c-.19-.2-.33-.43-.43-.7-.1-.26-.15-.54-.15-.83s.05-.58,.16-.84,.25-.5,.44-.7c.19-.2,.41-.36,.67-.48s.55-.18,.86-.18,.6,.06,.87,.18,.49,.28,.68,.48c.19,.2,.33,.43,.44,.7,.11,.26,.16,.55,.16,.84s-.05,.57-.15,.83c-.1,.26-.25,.5-.44,.7s-.41,.36-.68,.48-.55,.18-.87,.18Zm-1.4-2.18c0,.22,.04,.43,.11,.62s.17,.35,.3,.49c.13,.14,.28,.25,.45,.33s.35,.12,.55,.12,.38-.04,.55-.12c.17-.08,.32-.19,.45-.34,.13-.14,.23-.31,.3-.5s.11-.4,.11-.62-.04-.42-.11-.61-.17-.36-.3-.5c-.13-.14-.28-.26-.45-.34-.17-.08-.35-.12-.55-.12s-.38,.04-.55,.13c-.17,.08-.32,.2-.45,.34-.13,.14-.23,.31-.3,.5s-.11,.4-.11,.62Z"/>
    <path class="cls-1" d="M165.69,414.62h-.71v-2.37c0-.45-.07-.78-.21-.99-.14-.21-.35-.31-.63-.31-.15,0-.29,.03-.44,.09-.15,.06-.28,.13-.41,.23-.13,.1-.24,.21-.34,.35-.1,.13-.17,.28-.22,.45v2.55h-.71v-4.23h.65v.91c.17-.3,.41-.54,.73-.71,.32-.18,.66-.27,1.03-.27,.24,0,.45,.04,.61,.13,.16,.09,.29,.21,.39,.37,.1,.16,.17,.35,.21,.56,.04,.22,.06,.45,.06,.71v2.53Z"/>
    <path class="cls-1" d="M166.74,414.62v-.91h.6v.91h-.6Z"/>
    <path class="cls-1" d="M174.82,414.62h-.71v-2.37c0-.44-.07-.77-.22-.98-.14-.21-.36-.32-.64-.32s-.55,.1-.78,.31c-.23,.21-.39,.48-.49,.81v2.55h-.71v-2.37c0-.45-.07-.78-.21-.99-.14-.21-.35-.31-.63-.31s-.55,.1-.78,.3c-.23,.2-.4,.47-.49,.81v2.55h-.71v-4.23h.65v.91c.17-.31,.4-.56,.67-.73s.59-.26,.93-.26,.64,.1,.85,.29c.21,.19,.34,.44,.39,.74,.38-.69,.92-1.03,1.61-1.03,.24,0,.45,.04,.61,.13,.16,.09,.3,.21,.39,.37s.17,.35,.21,.56c.04,.22,.06,.45,.06,.71v2.53Z"/>
    <path class="cls-1" d="M177.8,414.7c-.32,0-.61-.06-.88-.17s-.49-.27-.68-.47c-.19-.2-.34-.43-.44-.7s-.16-.55-.16-.85,.05-.58,.16-.84c.11-.26,.25-.5,.45-.7s.42-.36,.69-.47,.56-.17,.88-.17,.61,.06,.87,.18,.49,.28,.67,.47c.18,.2,.33,.43,.43,.69,.1,.26,.15,.53,.15,.81,0,.06,0,.11,0,.16,0,.05,0,.09-.01,.11h-3.51c.02,.21,.06,.4,.15,.58,.08,.17,.19,.32,.32,.45s.28,.22,.44,.29c.16,.07,.34,.11,.52,.11,.13,0,.26-.02,.38-.05,.12-.04,.24-.08,.35-.14s.2-.13,.29-.22c.08-.09,.15-.18,.19-.29l.62,.17c-.07,.16-.17,.3-.29,.43-.12,.13-.26,.24-.42,.34s-.34,.17-.53,.22c-.19,.05-.4,.08-.61,.08Zm1.45-2.48c-.02-.2-.07-.38-.15-.56s-.19-.31-.32-.43-.27-.21-.44-.28c-.17-.07-.35-.1-.53-.1s-.37,.03-.54,.1c-.17,.07-.31,.16-.44,.28-.13,.12-.23,.27-.31,.43-.08,.17-.13,.35-.14,.55h2.87Z"/>
  </g>
  <g>
    <path class="cls-1" d="M395.85,414.7c-.34,0-.68-.05-1.01-.16s-.61-.26-.85-.46l.31-.48c.25,.19,.5,.33,.75,.43,.25,.09,.51,.14,.79,.14,.31,0,.55-.06,.73-.18,.18-.12,.27-.29,.27-.51,0-.1-.02-.19-.07-.26-.05-.07-.12-.14-.22-.19s-.22-.1-.37-.15c-.15-.04-.33-.09-.53-.14-.25-.06-.47-.13-.66-.19-.18-.06-.34-.13-.45-.21-.12-.08-.21-.18-.26-.29s-.08-.25-.08-.42c0-.21,.04-.4,.13-.56,.08-.16,.2-.3,.34-.41,.15-.11,.32-.19,.51-.25,.2-.06,.41-.09,.64-.09,.32,0,.62,.05,.89,.15s.51,.24,.7,.41l-.32,.43c-.18-.16-.38-.27-.6-.35-.22-.08-.45-.12-.68-.12-.26,0-.48,.06-.66,.17-.18,.11-.27,.29-.27,.53,0,.1,.02,.18,.05,.24s.09,.12,.17,.17c.08,.05,.18,.09,.31,.13,.13,.04,.28,.08,.46,.12,.28,.06,.53,.13,.73,.2,.21,.07,.38,.15,.52,.24,.14,.09,.24,.2,.31,.32,.07,.12,.1,.28,.1,.45,0,.39-.15,.71-.45,.94-.3,.23-.71,.35-1.22,.35Z"/>
    <path class="cls-1" d="M401.35,414.62l-1.46-2.07-.81,.76v1.3h-.71v-5.92h.71v3.89l2.17-2.2h.79l-1.69,1.75,1.77,2.47h-.77Z"/>
    <path class="cls-1" d="M402.74,409.6v-.89h.71v.89h-.71Zm0,5.03v-4.23h.71v4.23h-.71Z"/>
    <path class="cls-1" d="M408.28,414.62h-.71v-2.37c0-.45-.07-.78-.21-.99-.14-.21-.35-.31-.63-.31-.15,0-.29,.03-.44,.09-.15,.06-.28,.13-.41,.23-.13,.1-.24,.21-.34,.35-.1,.13-.17,.28-.22,.45v2.55h-.71v-4.23h.65v.91c.17-.3,.41-.54,.73-.71,.32-.18,.66-.27,1.03-.27,.24,0,.45,.04,.61,.13,.16,.09,.29,.21,.39,.37,.1,.16,.17,.35,.21,.56,.04,.22,.06,.45,.06,.71v2.53Z"/>
    <path class="cls-1" d="M411.66,414.7c-.35,0-.66-.09-.93-.26-.27-.17-.48-.39-.64-.66v2.56h-.71v-5.96h.63v.79c.17-.26,.38-.47,.65-.63,.27-.16,.56-.24,.89-.24,.29,0,.56,.06,.8,.18s.45,.28,.63,.48c.18,.2,.32,.44,.42,.7,.1,.26,.15,.54,.15,.83,0,.3-.05,.59-.14,.86-.09,.27-.22,.5-.39,.7-.17,.2-.37,.35-.6,.47s-.49,.17-.77,.17Zm-.22-.62c.21,0,.4-.04,.57-.13,.17-.09,.32-.21,.44-.36,.12-.15,.21-.32,.28-.51,.06-.19,.1-.38,.1-.58,0-.21-.04-.41-.11-.6s-.18-.36-.31-.5c-.13-.14-.28-.26-.46-.34-.18-.08-.37-.13-.57-.13-.13,0-.26,.03-.4,.08s-.27,.12-.39,.2c-.12,.08-.23,.18-.32,.3s-.15,.24-.17,.37v1.21c.06,.14,.13,.27,.23,.39,.09,.12,.2,.23,.32,.32,.12,.09,.25,.16,.38,.21,.13,.05,.28,.08,.42,.08Z"/>
    <path class="cls-1" d="M416.31,414.7c-.32,0-.61-.06-.88-.17s-.49-.27-.68-.47c-.19-.2-.34-.43-.44-.7s-.16-.55-.16-.85,.05-.58,.16-.84c.11-.26,.25-.5,.45-.7s.42-.36,.69-.47,.56-.17,.88-.17,.61,.06,.87,.18,.49,.28,.67,.47c.18,.2,.33,.43,.43,.69,.1,.26,.15,.53,.15,.81,0,.06,0,.11,0,.16,0,.05,0,.09-.01,.11h-3.51c.02,.21,.06,.4,.15,.58,.08,.17,.19,.32,.32,.45s.28,.22,.44,.29c.16,.07,.34,.11,.52,.11,.13,0,.26-.02,.38-.05,.12-.04,.24-.08,.35-.14s.2-.13,.29-.22c.08-.09,.15-.18,.19-.29l.62,.17c-.07,.16-.17,.3-.29,.43-.12,.13-.26,.24-.42,.34s-.34,.17-.53,.22c-.19,.05-.4,.08-.61,.08Zm1.45-2.48c-.02-.2-.07-.38-.15-.56s-.19-.31-.32-.43-.27-.21-.44-.28c-.17-.07-.35-.1-.53-.1s-.37,.03-.54,.1c-.17,.07-.31,.16-.44,.28-.13,.12-.23,.27-.31,.43-.08,.17-.13,.35-.14,.55h2.87Z"/>
    <path class="cls-1" d="M421.46,411.02c-.36,.01-.67,.1-.94,.28-.27,.17-.47,.41-.58,.72v2.61h-.71v-4.23h.66v.98c.15-.29,.34-.53,.58-.71,.24-.18,.49-.28,.76-.3h.14s.07,0,.1,0v.65Z"/>
    <path class="cls-1" d="M422.39,414.62v-3.67h-.58v-.56h.58v-.09c0-.52,.12-.94,.35-1.23s.55-.45,.95-.45c.17,0,.33,.02,.49,.07,.16,.05,.31,.11,.44,.19l-.18,.53c-.08-.05-.17-.1-.28-.13-.11-.03-.22-.05-.33-.05-.24,0-.42,.09-.54,.27s-.19,.44-.19,.78v.11h1.13v.56h-1.13v3.67h-.71Z"/>
    <path class="cls-1" d="M426.72,414.7c-.32,0-.61-.06-.88-.17s-.49-.27-.68-.47c-.19-.2-.34-.43-.44-.7s-.16-.55-.16-.85,.05-.58,.16-.84c.11-.26,.25-.5,.45-.7s.42-.36,.69-.47,.56-.17,.88-.17,.61,.06,.87,.18,.49,.28,.67,.47c.18,.2,.33,.43,.43,.69,.1,.26,.15,.53,.15,.81,0,.06,0,.11,0,.16,0,.05,0,.09-.01,.11h-3.51c.02,.21,.06,.4,.15,.58,.08,.17,.19,.32,.32,.45s.28,.22,.44,.29c.16,.07,.34,.11,.52,.11,.13,0,.26-.02,.38-.05,.12-.04,.24-.08,.35-.14s.2-.13,.29-.22c.08-.09,.15-.18,.19-.29l.62,.17c-.07,.16-.17,.3-.29,.43-.12,.13-.26,.24-.42,.34s-.34,.17-.53,.22c-.19,.05-.4,.08-.61,.08Zm1.45-2.48c-.02-.2-.07-.38-.15-.56s-.19-.31-.32-.43-.27-.21-.44-.28c-.17-.07-.35-.1-.53-.1s-.37,.03-.54,.1c-.17,.07-.31,.16-.44,.28-.13,.12-.23,.27-.31,.43-.08,.17-.13,.35-.14,.55h2.87Z"/>
    <path class="cls-1" d="M429.36,412.5c0-.3,.05-.58,.15-.84,.1-.26,.25-.5,.44-.69,.19-.2,.41-.35,.68-.47,.26-.12,.56-.17,.88-.17,.42,0,.78,.09,1.09,.28,.31,.19,.54,.44,.69,.75l-.7,.22c-.11-.2-.26-.36-.45-.47-.19-.11-.41-.17-.65-.17-.19,0-.38,.04-.55,.12-.17,.08-.32,.19-.45,.33-.12,.14-.22,.31-.3,.49-.07,.19-.11,.4-.11,.62s.04,.43,.11,.62c.08,.19,.18,.36,.3,.51,.13,.14,.28,.26,.45,.34s.35,.12,.55,.12c.12,0,.25-.02,.37-.05,.12-.04,.23-.08,.33-.14,.1-.06,.19-.13,.26-.21,.08-.08,.13-.16,.16-.26l.7,.21c-.06,.16-.16,.3-.27,.43s-.25,.24-.41,.33c-.16,.09-.33,.16-.52,.22-.19,.05-.39,.08-.6,.08-.32,0-.61-.06-.88-.18s-.49-.28-.68-.48c-.19-.2-.34-.43-.44-.7-.11-.27-.16-.55-.16-.85Z"/>
    <path class="cls-1" d="M436.32,414.41s-.1,.05-.17,.08c-.07,.03-.15,.06-.24,.09-.09,.03-.19,.05-.29,.07-.11,.02-.21,.03-.33,.03-.26,0-.48-.07-.67-.21-.19-.14-.28-.37-.28-.67v-2.85h-.58v-.56h.58v-1.41h.71v1.41h.95v.56h-.95v2.63c.01,.16,.06,.27,.15,.34,.09,.07,.2,.11,.32,.11,.14,0,.27-.02,.39-.07s.2-.08,.24-.11l.17,.57Z"/>
    <path class="cls-1" d="M436.98,409.6v-.89h.71v.89h-.71Zm0,5.03v-4.23h.71v4.23h-.71Z"/>
    <path class="cls-1" d="M440.7,414.7c-.32,0-.61-.06-.87-.18s-.49-.28-.67-.48c-.19-.2-.33-.43-.43-.7-.1-.26-.15-.54-.15-.83s.05-.58,.16-.84,.25-.5,.44-.7c.19-.2,.41-.36,.67-.48s.55-.18,.86-.18,.6,.06,.87,.18,.49,.28,.68,.48c.19,.2,.33,.43,.44,.7s.16,.55,.16,.84-.05,.57-.15,.83c-.1,.26-.25,.5-.44,.7s-.41,.36-.68,.48-.55,.18-.87,.18Zm-1.4-2.18c0,.22,.04,.43,.11,.62s.17,.35,.3,.49c.13,.14,.28,.25,.45,.33s.35,.12,.55,.12,.38-.04,.55-.12c.17-.08,.32-.19,.45-.34,.13-.14,.23-.31,.3-.5s.11-.4,.11-.62-.04-.42-.11-.61-.17-.36-.3-.5c-.13-.14-.28-.26-.45-.34-.17-.08-.35-.12-.55-.12s-.38,.04-.55,.13c-.17,.08-.32,.2-.45,.34-.13,.14-.23,.31-.3,.5s-.11,.4-.11,.62Z"/>
    <path class="cls-1" d="M447.38,414.62h-.71v-2.37c0-.45-.07-.78-.21-.99-.14-.21-.35-.31-.63-.31-.15,0-.29,.03-.44,.09-.15,.06-.28,.13-.41,.23-.13,.1-.24,.21-.34,.35-.1,.13-.17,.28-.22,.45v2.55h-.71v-4.23h.65v.91c.17-.3,.41-.54,.73-.71,.32-.18,.66-.27,1.03-.27,.24,0,.45,.04,.61,.13,.16,.09,.29,.21,.39,.37,.1,.16,.17,.35,.21,.56,.04,.22,.06,.45,.06,.71v2.53Z"/>
    <path class="cls-1" d="M448.43,414.62v-.91h.6v.91h-.6Z"/>
    <path class="cls-1" d="M456.5,414.62h-.71v-2.37c0-.44-.07-.77-.22-.98-.14-.21-.36-.32-.64-.32s-.55,.1-.78,.31c-.23,.21-.39,.48-.49,.81v2.55h-.71v-2.37c0-.45-.07-.78-.21-.99-.14-.21-.35-.31-.63-.31s-.55,.1-.78,.3c-.23,.2-.4,.47-.49,.81v2.55h-.71v-4.23h.65v.91c.17-.31,.4-.56,.67-.73s.59-.26,.93-.26,.64,.1,.85,.29c.21,.19,.34,.44,.39,.74,.38-.69,.92-1.03,1.61-1.03,.24,0,.45,.04,.61,.13,.16,.09,.3,.21,.39,.37s.17,.35,.21,.56c.04,.22,.06,.45,.06,.71v2.53Z"/>
    <path class="cls-1" d="M459.49,414.7c-.32,0-.61-.06-.88-.17s-.49-.27-.68-.47c-.19-.2-.34-.43-.44-.7s-.16-.55-.16-.85,.05-.58,.16-.84c.11-.26,.25-.5,.45-.7s.42-.36,.69-.47,.56-.17,.88-.17,.61,.06,.87,.18,.49,.28,.67,.47c.18,.2,.33,.43,.43,.69,.1,.26,.15,.53,.15,.81,0,.06,0,.11,0,.16,0,.05,0,.09-.01,.11h-3.51c.02,.21,.06,.4,.15,.58,.08,.17,.19,.32,.32,.45s.28,.22,.44,.29c.16,.07,.34,.11,.52,.11,.13,0,.26-.02,.38-.05,.12-.04,.24-.08,.35-.14s.2-.13,.29-.22c.08-.09,.15-.18,.19-.29l.62,.17c-.07,.16-.17,.3-.29,.43-.12,.13-.26,.24-.42,.34s-.34,.17-.53,.22c-.19,.05-.4,.08-.61,.08Zm1.45-2.48c-.02-.2-.07-.38-.15-.56s-.19-.31-.32-.43-.27-.21-.44-.28c-.17-.07-.35-.1-.53-.1s-.37,.03-.54,.1c-.17,.07-.31,.16-.44,.28-.13,.12-.23,.27-.31,.43-.08,.17-.13,.35-.14,.55h2.87Z"/>
  </g>
  <g>
    <text class="cls-5" transform="translate(27.84 306.91)"><tspan x="0" y="0">THIS ENVELOPE </tspan><tspan x="0" y="14.08">CONTAINS THE PATH TO A</tspan></text>
    <text class="cls-2" transform="translate(27.84 344.44)"><tspan x="0" y="0">HEALTHY </tspan></text>
    <text class="cls-4" transform="translate(27.84 382.17)"><tspan x="0" y="0">SKIN</tspan></text>
  </g>
  <path class="cls-1" d="M171.2,112.74l-.44,2h-.11c-.68-1.85-2.07-3.2-3.31-3.2-1.48,0-2.31,.83-2.42,1.72-.31,2.92,7.04,2.14,6.8,5.69-.13,1.72-1.74,3.01-4.18,3.01-1.77,0-3.07-.59-4.25-1.46l.46-2.18h.11c.74,1.53,2.38,3.33,4.32,3.33,1.57,0,2.75-.81,2.88-1.74,.41-2.85-7.19-1.59-6.67-5.86,.17-1.42,.96-2.7,3.33-2.7,1.13,0,2.62,.72,3.49,1.39m12.2,8.94v.15h-3.31v-.15c.5-.39,.26-.94-.39-2.05l-2.46-4.01-1.77,1.55v3.12c0,.76,.15,1.2,.5,1.39v.15h-2.7v-.15c.33-.2,.48-.63,.48-1.39v-12.62c0-.76-.07-.85-.48-.92v-.17l2.05-.46h.15v10.85l2.31-2.03c2.24-2,2.77-2.85,1.9-3.42v-.17h2.88v.17c-1.2,.48-2.24,1.37-4.23,3.12l2.01,3.2c1.5,2.44,2.09,3.38,3.07,3.84m3.14,0v.15h-2.7v-.15c.33-.2,.48-.52,.48-1.29v-7.37c0-.76-.07-.98-.48-1.05v-.15l2.05-.48h.15v9.04c0,.76,.15,1.09,.5,1.29m-2.44-13.12c0-.57,.46-1.02,1.02-1.02s1.02,.46,1.02,1.02-.46,1.02-1.02,1.02-1.02-.46-1.02-1.02m14.73,13.12v.15h-2.7v-.15c.35-.2,.44-.57,.37-1.29-.07-.72-.39-4.4-.5-5.54-.15-1.63-.96-3.49-2.83-3.12-2.44,.48-2.9,5.03-2.9,6.86v1.79c0,.76,.15,1.09,.5,1.29v.15h-2.7v-.15c.33-.2,.48-.52,.48-1.29v-7.37c0-.76-.07-.98-.48-1.05v-.15l2.05-.48h.15v5.4c.28-2.44,1.02-5.4,3.86-5.4,1.79,0,3.31,1.22,3.57,3.84,.22,2.11,.44,4.4,.52,5.21,.09,.78,.28,1.09,.61,1.29m-23.59,6.3c.14,5.66-5.13,6.62-7.7,6.62-.5,0-.96-.09-1.35-.21v3.93c0,.8,.07,1.03,.5,1.1v.16l-2.15,.5h-.16v-14.83c0-.8-.07-1.03-.5-1.1v-.16l2.15-.5h.16v6.25c.41-2.65,1.58-6.25,4.79-6.25,1.88,0,4.17,1.6,4.26,4.5m-1.79-.32c-.11-1.99-1.51-4.15-3.48-3.77-2.57,.5-3.78,5.27-3.78,7.19v3.17c.11,.05,.64,.23,1.38,.21,2.2-.02,6.21-.98,5.89-6.8m14.58,3.17c-.14,1.62-1.58,3.77-4.84,3.77s-6.21-1.55-6.3-5.32c-.11-3.95,3.48-5.66,6.01-5.8,1.95-.09,4.63,.84,4.95,3.61h-2.13c1.31,.34,2.5,1.67,2.32,3.74m-3.26-3.74h-5.94c-.3,1.21-.23,2.56,.16,3.65,.85,2.4,2.57,3.45,4.91,3.35,1.97-.09,3.69-1.44,3.92-3.22,.28-2.37-1.31-3.79-3.05-3.79m-5.89-.18h7.31c-.3-1.99-2.09-3.58-4.33-3.15-1.56,.3-2.57,1.6-2.98,3.15m19.14-2.08l-1.4,1.96-.16-.09c-.05-1.3-.69-2.99-1.93-2.81-2.25,.34-2.54,6.23-2.54,8.17v.89c0,.8,.16,1.14,.5,1.35v.16h-2.84v-.16c.37-.21,.53-.55,.53-1.35v-7.71c0-.8-.07-1.03-.53-1.1v-.16l2.15-.5h.18v6.12c.23-2.76,.87-6.12,3.3-6.12,1.24,0,1.95,.43,2.73,1.35m3.85-1.16v9.29c0,.8,.16,1.14,.5,1.35v.16h-2.82v-.16c.34-.21,.5-.55,.5-1.35v-7.46c0-1.23-.46-1.83-1.35-1.83v-.18h3.37c-1.38-.07-3.28-1.19-3.28-2.72s1.26-2.76,3.53-2.76c.99,0,2.15,.25,2.98,.84l-.34,2.4h-.16c-.55-1.39-2.04-3.63-3.58-2.92-.78,.34-1.05,1.55-.85,2.78,.16,.98,.89,2.37,2.75,2.37h3.16v.18h-4.42Zm15.36,7.17c-.14,1.62-1.58,3.77-4.84,3.77s-6.21-1.55-6.3-5.32c-.11-3.95,3.48-5.66,6.01-5.8,1.95-.09,4.63,.84,4.95,3.61h-2.13c1.31,.34,2.5,1.67,2.32,3.74m-3.26-3.74h-5.94c-.3,1.21-.23,2.56,.16,3.65,.85,2.4,2.57,3.45,4.91,3.35,1.97-.09,3.69-1.44,3.92-3.22,.28-2.37-1.31-3.79-3.05-3.79m-5.89-.18h7.31c-.3-1.99-2.09-3.58-4.33-3.15-1.56,.3-2.57,1.6-2.98,3.15m17.99,7.28c2.27-.23,3.51-2.24,3.87-2.88l.14,.07c-.71,1.28-2.06,3.06-4.79,3.22-3.16,.16-6.33-1.55-6.42-5.32-.11-3.95,3.48-5.8,6.01-5.8,1.31,0,3.14,.59,4.33,1.21l-.34,1.89h-.14c-.55-1.37-2.73-3.33-4.88-2.83-2.82,.64-3.85,4.25-2.89,6.98,.85,2.4,2.8,3.67,5.11,3.45m13.39-3.72c-.44,2.15-1.4,4.13-3.81,4.13-2.04,0-3.3-1.32-3.3-4.02v-6.92h-1.35v-.18c1.95,0,2.11-2.03,2.11-3.13h1.81c0,1.76-1.74,3.06-3.12,3.13h5.07v.18h-2.7v7.26c0,1.99,.55,3.51,2.5,3.26,1.51-.21,2.27-2.01,2.68-3.77l.11,.05Zm3.07,3.83v.16h-2.84v-.16c.34-.21,.5-.55,.5-1.35v-7.71c0-.8-.07-1.03-.5-1.1v-.16l2.15-.5h.16v9.47c0,.8,.16,1.14,.53,1.35m-2.57-13.74c0-.59,.48-1.07,1.08-1.07s1.08,.48,1.08,1.07-.48,1.07-1.08,1.07-1.08-.48-1.08-1.07m16.11,7.99c0,3.65-3.14,6.05-6.21,6.05s-5.73-1.87-5.73-5.07c0-3.77,3.14-6.05,6.21-6.05s5.73,1.92,5.73,5.07m-1.93-.73c-.8-2.74-2.96-4.68-5.57-3.93-2.61,.75-3.32,3.61-2.52,6.37,.8,2.74,2.96,4.7,5.57,3.93,2.61-.75,3.32-3.61,2.52-6.37m14.85,6.48v.16h-2.84v-.16c.37-.21,.46-.59,.39-1.35-.07-.75-.41-4.61-.53-5.8-.16-1.71-1.01-3.65-2.98-3.26-2.57,.5-3.05,5.27-3.05,7.19v1.87c0,.8,.16,1.14,.53,1.35v.16h-2.84v-.16c.34-.21,.5-.55,.5-1.35v-7.71c0-.8-.07-1.03-.5-1.1v-.16l2.15-.5h.16v5.66c.3-2.56,1.08-5.66,4.06-5.66,1.88,0,3.48,1.28,3.76,4.02,.23,2.21,.46,4.61,.55,5.45,.09,.82,.3,1.14,.64,1.35m-46.58,5.7v-2.1c0-.1,.06-.16,.15-.16h.76c.41,0,.69,.24,.69,.6,0,.25-.18,.48-.42,.53h0c.33,.06,.54,.29,.54,.61,0,.42-.3,.68-.82,.68h-.76c-.09,0-.15-.06-.15-.16m.75-1.22c.36,0,.55-.14,.55-.4,0-.24-.16-.37-.46-.37h-.54v.77h.45Zm.11,1.11c.36,0,.55-.15,.55-.43s-.2-.42-.58-.42h-.54v.85h.56Zm3.08,.11v-2.1c0-.1,.06-.16,.15-.16h1.22c.09,0,.14,.06,.14,.14s-.06,.14-.14,.14h-1.07v.77h1.01c.08,0,.14,.05,.14,.13s-.06,.13-.14,.13h-1.01v.83h1.07c.09,0,.14,.06,.14,.14s-.06,.14-.14,.14h-1.22c-.09,0-.15-.06-.15-.16m3.63,.05s0-.05,.02-.08l.77-2.1c.04-.1,.1-.15,.2-.15,.09,0,.15,.05,.19,.14l.78,2.1s.02,.06,.02,.08c0,.08-.06,.13-.15,.13-.08,0-.12-.04-.15-.12l-.21-.6h-.95l-.21,.6c-.03,.08-.07,.12-.15,.12-.09,0-.15-.06-.15-.13m1.38-.84l-.39-1.1h-.01l-.39,1.1h.78Zm2.8,.1v-1.43c0-.1,.06-.16,.15-.16s.15,.06,.15,.16v1.41c0,.36,.24,.63,.66,.63s.66-.26,.66-.63v-1.41c0-.1,.06-.16,.15-.16s.15,.06,.15,.16v1.43c0,.51-.36,.89-.96,.89s-.96-.37-.96-.89m4.87,.71v-2.01h-.64c-.09,0-.14-.06-.14-.14s.06-.14,.14-.14h1.58c.09,0,.14,.06,.14,.14s-.06,.14-.14,.14h-.64v2.01c0,.1-.06,.16-.15,.16s-.15-.06-.15-.16m3.92,0v-.91l-.78-1.17s-.03-.06-.03-.1c0-.08,.06-.13,.15-.13,.06,0,.1,.02,.13,.08l.68,1.03h.01l.68-1.03c.04-.06,.07-.08,.13-.08,.08,0,.15,.06,.15,.13,0,.03,0,.06-.03,.1l-.78,1.17v.91c0,.1-.06,.16-.15,.16s-.15-.06-.15-.16m7.57,.1l-.2-.21c-.2,.18-.48,.28-.77,.28-.48,0-.81-.28-.81-.68,0-.28,.15-.5,.47-.67,.05-.03,.08-.04,.09-.05-.22-.23-.3-.38-.3-.56,0-.31,.26-.53,.61-.53s.61,.23,.61,.54c0,.25-.15,.42-.52,.62l.6,.64c.07-.13,.13-.31,.13-.6,0-.09,.05-.15,.13-.15s.13,.06,.13,.15c0,.34-.06,.6-.2,.8l.22,.23s.06,.07,.06,.12c0,.08-.06,.13-.13,.13-.06,0-.09-.02-.13-.06m-.37-.4l-.68-.74s-.07,.03-.08,.04c-.25,.15-.35,.29-.35,.47,0,.27,.22,.45,.54,.45,.22,0,.44-.09,.57-.22m-.2-1.47c0-.18-.13-.31-.33-.31s-.33,.13-.33,.32c0,.13,.07,.25,.26,.44,.29-.15,.4-.27,.4-.44m5.55,.7c0-.76,.43-1.24,1.09-1.24,.44,0,.8,.23,.94,.58,.02,.04,.03,.08,.03,.12,0,.08-.05,.14-.14,.14-.07,0-.13-.04-.16-.13-.11-.28-.37-.44-.67-.44-.47,0-.78,.38-.78,.97s.3,.97,.78,.97c.31,0,.56-.13,.67-.4,.03-.07,.07-.11,.14-.11,.08,0,.14,.06,.14,.14,0,.05-.01,.1-.04,.15-.16,.32-.47,.5-.91,.5-.66,0-1.09-.48-1.09-1.25m4.18,1.1s0-.05,.02-.08l.77-2.1c.04-.1,.1-.15,.2-.15,.09,0,.15,.05,.19,.14l.78,2.1s.02,.06,.02,.08c0,.08-.06,.13-.15,.13-.08,0-.12-.04-.15-.12l-.21-.6h-.95l-.21,.6c-.03,.08-.07,.12-.15,.12-.09,0-.15-.06-.15-.13m1.38-.84l-.39-1.1h0l-.39,1.1h.78Zm2.8,.82v-2.13c0-.1,.06-.16,.15-.16h.75c.46,0,.77,.28,.77,.72,0,.34-.18,.6-.48,.69l.44,.79s.03,.07,.03,.11c0,.08-.07,.14-.15,.14-.07,0-.11-.03-.15-.1l-.48-.89h-.58v.83c0,.09-.06,.16-.15,.16s-.15-.06-.15-.16m.88-1.09c.31,0,.48-.17,.48-.46s-.19-.46-.5-.46h-.56v.92h.58Zm3.05,1.06v-2.1c0-.1,.06-.16,.15-.16h1.22c.09,0,.14,.06,.14,.14s-.06,.14-.14,.14h-1.07v.77h1.01c.08,0,.14,.05,.14,.13s-.06,.13-.14,.13h-1.01v.83h1.07c.09,0,.14,.06,.14,.14s-.06,.14-.14,.14h-1.22c-.09,0-.15-.06-.15-.16"/>
  <path class="cls-1" d="M383.16,342.9l-.44,2.03h-.11c-.68-1.88-2.1-3.24-3.35-3.24-1.5,0-2.34,.84-2.45,1.74-.31,2.96,7.13,2.16,6.88,5.76-.13,1.74-1.76,3.04-4.24,3.04-1.79,0-3.11-.6-4.3-1.48l.46-2.21h.11c.75,1.54,2.4,3.38,4.37,3.38,1.59,0,2.78-.82,2.91-1.76,.42-2.89-7.28-1.61-6.75-5.93,.18-1.43,.97-2.74,3.38-2.74,1.15,0,2.65,.73,3.53,1.41m12.35,9.05v.15h-3.35v-.15c.51-.4,.26-.95-.4-2.07l-2.49-4.06-1.79,1.57v3.15c0,.77,.15,1.21,.51,1.41v.15h-2.74v-.15c.33-.2,.49-.64,.49-1.41v-12.77c0-.77-.07-.86-.49-.93v-.18l2.07-.46h.15v10.99l2.34-2.05c2.27-2.03,2.8-2.89,1.92-3.46v-.18h2.91v.18c-1.21,.49-2.27,1.39-4.28,3.15l2.03,3.24c1.52,2.47,2.12,3.42,3.11,3.88m3.18,0v.15h-2.74v-.15c.33-.2,.49-.53,.49-1.3v-7.46c0-.77-.07-.99-.49-1.06v-.15l2.07-.49h.15v9.16c0,.77,.15,1.1,.51,1.3m-2.47-13.28c0-.57,.46-1.04,1.04-1.04s1.04,.46,1.04,1.04-.46,1.04-1.04,1.04-1.04-.46-1.04-1.04m14.91,13.28v.15h-2.74v-.15c.35-.2,.44-.57,.38-1.3-.07-.73-.4-4.46-.51-5.6-.15-1.65-.97-3.53-2.87-3.15-2.47,.49-2.93,5.1-2.93,6.95v1.81c0,.77,.15,1.1,.51,1.3v.15h-2.74v-.15c.33-.2,.49-.53,.49-1.3v-7.46c0-.77-.07-.99-.49-1.06v-.15l2.07-.49h.15v5.47c.29-2.47,1.04-5.47,3.91-5.47,1.81,0,3.35,1.24,3.62,3.88,.22,2.14,.44,4.46,.53,5.27,.09,.79,.29,1.1,.62,1.3m-23.88,6.37c.14,5.73-5.2,6.7-7.8,6.7-.51,0-.97-.09-1.37-.21v3.97c0,.81,.07,1.04,.51,1.11v.16l-2.18,.51h-.16v-15.02c0-.81-.07-1.04-.51-1.11v-.16l2.18-.51h.16v6.33c.42-2.68,1.6-6.33,4.85-6.33,1.9,0,4.22,1.62,4.32,4.55m-1.81-.32c-.12-2.01-1.53-4.2-3.53-3.81-2.6,.51-3.83,5.34-3.83,7.28v3.21c.12,.05,.65,.23,1.39,.21,2.23-.02,6.29-.99,5.96-6.89m14.76,3.21c-.14,1.64-1.6,3.81-4.9,3.81s-6.29-1.57-6.38-5.38c-.12-4,3.53-5.73,6.08-5.87,1.97-.09,4.69,.85,5.01,3.65h-2.16c1.32,.35,2.53,1.69,2.34,3.79m-3.3-3.79h-6.01c-.3,1.22-.23,2.59,.16,3.7,.86,2.43,2.6,3.49,4.97,3.4,2-.09,3.74-1.46,3.97-3.26,.28-2.4-1.32-3.84-3.09-3.84m-5.96-.18h7.4c-.3-2.01-2.11-3.63-4.39-3.19-1.58,.3-2.6,1.62-3.02,3.19m19.38-2.1l-1.42,1.99-.16-.09c-.05-1.32-.7-3.03-1.95-2.84-2.27,.35-2.58,6.31-2.58,8.27v.9c0,.81,.16,1.16,.51,1.36v.16h-2.88v-.16c.37-.21,.53-.55,.53-1.36v-7.81c0-.81-.07-1.04-.53-1.11v-.16l2.18-.51h.19v6.19c.23-2.8,.88-6.19,3.34-6.19,1.25,0,1.97,.44,2.76,1.36m3.9-1.18v9.4c0,.81,.16,1.16,.51,1.36v.16h-2.85v-.16c.35-.21,.51-.55,.51-1.36v-7.56c0-1.25-.46-1.85-1.37-1.85v-.18h3.41c-1.39-.07-3.32-1.2-3.32-2.75s1.28-2.8,3.57-2.8c1,0,2.18,.25,3.02,.85l-.35,2.43h-.16c-.56-1.41-2.07-3.67-3.62-2.96-.79,.35-1.07,1.57-.86,2.82,.16,.99,.91,2.4,2.78,2.4h3.2v.18h-4.48Zm15.55,7.25c-.14,1.64-1.6,3.81-4.9,3.81s-6.29-1.57-6.38-5.38c-.12-4,3.53-5.73,6.08-5.87,1.97-.09,4.69,.85,5.01,3.65h-2.16c1.32,.35,2.53,1.69,2.34,3.79m-3.3-3.79h-6.01c-.3,1.22-.23,2.59,.16,3.7,.86,2.43,2.6,3.49,4.97,3.4,2-.09,3.74-1.46,3.97-3.26,.28-2.4-1.32-3.84-3.09-3.84m-5.96-.18h7.4c-.3-2.01-2.11-3.63-4.39-3.19-1.58,.3-2.6,1.62-3.02,3.19m18.22,7.37c2.3-.23,3.55-2.26,3.92-2.91l.14,.07c-.72,1.29-2.09,3.1-4.85,3.26-3.2,.16-6.4-1.57-6.5-5.38-.12-4,3.53-5.87,6.08-5.87,1.32,0,3.18,.6,4.39,1.22l-.35,1.92h-.14c-.56-1.39-2.76-3.37-4.94-2.86-2.85,.65-3.9,4.3-2.92,7.07,.86,2.43,2.83,3.72,5.17,3.49m13.55-3.77c-.44,2.17-1.42,4.18-3.85,4.18-2.07,0-3.34-1.34-3.34-4.07v-7h-1.37v-.18c1.97,0,2.13-2.06,2.13-3.17h1.83c0,1.78-1.76,3.1-3.16,3.17h5.13v.18h-2.74v7.35c0,2.01,.56,3.56,2.53,3.3,1.53-.21,2.3-2.03,2.72-3.81l.12,.05Zm3.11,3.88v.16h-2.88v-.16c.35-.21,.51-.55,.51-1.36v-7.81c0-.81-.07-1.04-.51-1.11v-.16l2.18-.51h.16v9.59c0,.81,.16,1.16,.53,1.36m-2.6-13.91c0-.6,.49-1.09,1.09-1.09s1.09,.49,1.09,1.09-.49,1.09-1.09,1.09-1.09-.49-1.09-1.09m16.31,8.09c0,3.7-3.18,6.12-6.29,6.12s-5.8-1.89-5.8-5.13c0-3.81,3.18-6.12,6.29-6.12s5.8,1.94,5.8,5.13m-1.95-.74c-.81-2.77-2.99-4.74-5.64-3.97-2.65,.76-3.36,3.65-2.55,6.45,.81,2.77,2.99,4.76,5.64,3.97,2.65-.76,3.36-3.65,2.55-6.45m15.04,6.56v.16h-2.88v-.16c.37-.21,.46-.6,.39-1.36-.07-.76-.42-4.67-.53-5.87-.16-1.73-1.02-3.7-3.02-3.3-2.6,.51-3.09,5.34-3.09,7.28v1.89c0,.81,.16,1.16,.53,1.36v.16h-2.88v-.16c.35-.21,.51-.55,.51-1.36v-7.81c0-.81-.07-1.04-.51-1.11v-.16l2.18-.51h.16v5.73c.3-2.59,1.09-5.73,4.11-5.73,1.9,0,3.53,1.29,3.81,4.07,.23,2.24,.46,4.67,.56,5.52,.09,.83,.3,1.16,.65,1.36m-47.16,5.77v-2.13c0-.1,.06-.16,.15-.16h.77c.42,0,.7,.24,.7,.61,0,.25-.19,.49-.42,.53h0c.33,.06,.54,.29,.54,.61,0,.43-.31,.68-.83,.68h-.77c-.09,0-.15-.06-.15-.16m.76-1.23c.36,0,.56-.14,.56-.41,0-.24-.17-.38-.46-.38h-.55v.78h.46Zm.12,1.12c.37,0,.56-.15,.56-.43s-.2-.43-.59-.43h-.54v.86h.57Zm3.12,.11v-2.13c0-.1,.06-.16,.15-.16h1.24c.09,0,.15,.06,.15,.14s-.06,.14-.15,.14h-1.09v.78h1.03c.08,0,.14,.05,.14,.14s-.06,.14-.14,.14h-1.03v.84h1.09c.09,0,.15,.06,.15,.14s-.06,.14-.15,.14h-1.24c-.09,0-.15-.06-.15-.16m3.67,.05s0-.05,.02-.08l.78-2.12c.04-.1,.1-.15,.2-.15,.09,0,.15,.05,.19,.15l.79,2.12s.02,.06,.02,.08c0,.08-.06,.13-.15,.13-.08,0-.12-.04-.15-.12l-.22-.61h-.97l-.21,.61c-.03,.08-.07,.12-.15,.12-.09,0-.15-.06-.15-.13m1.39-.85l-.39-1.11h-.01l-.39,1.11h.79Zm2.84,.1v-1.45c0-.1,.06-.16,.15-.16s.15,.06,.15,.16v1.43c0,.37,.24,.64,.66,.64s.66-.27,.66-.64v-1.43c0-.1,.06-.16,.15-.16s.15,.06,.15,.16v1.45c0,.52-.36,.9-.97,.9s-.97-.38-.97-.9m4.93,.72v-2.03h-.65c-.09,0-.15-.06-.15-.14s.06-.14,.15-.14h1.6c.09,0,.15,.06,.15,.14s-.06,.14-.15,.14h-.65v2.03c0,.1-.06,.16-.15,.16s-.15-.06-.15-.16m3.97,0v-.92l-.79-1.18s-.03-.06-.03-.1c0-.08,.06-.13,.15-.13,.06,0,.1,.02,.13,.08l.69,1.04h.01l.69-1.04c.04-.06,.07-.08,.13-.08,.08,0,.15,.06,.15,.13,0,.03,0,.06-.03,.1l-.79,1.18v.92c0,.1-.06,.16-.15,.16s-.15-.06-.15-.16m7.67,.1l-.2-.21c-.21,.18-.49,.29-.78,.29-.48,0-.82-.28-.82-.69,0-.29,.16-.51,.48-.68,.05-.03,.08-.04,.09-.05-.22-.23-.3-.39-.3-.57,0-.31,.26-.54,.62-.54s.62,.23,.62,.54c0,.25-.15,.43-.52,.63l.6,.65c.07-.13,.13-.31,.13-.61,0-.09,.05-.15,.13-.15s.14,.06,.14,.15c0,.35-.06,.6-.2,.81l.22,.23s.06,.07,.06,.12c0,.08-.06,.13-.13,.13-.06,0-.09-.02-.13-.06m-.38-.41l-.69-.75s-.07,.03-.08,.04c-.25,.15-.35,.29-.35,.48,0,.27,.22,.46,.54,.46,.22,0,.44-.09,.57-.23m-.2-1.49c0-.19-.13-.32-.33-.32s-.33,.13-.33,.32c0,.13,.07,.25,.26,.44,.29-.15,.4-.27,.4-.44m5.62,.71c0-.77,.43-1.26,1.1-1.26,.44,0,.81,.23,.95,.59,.02,.04,.03,.08,.03,.12,0,.08-.05,.14-.14,.14-.07,0-.13-.04-.16-.13-.11-.29-.38-.44-.68-.44-.48,0-.79,.39-.79,.98s.31,.98,.79,.98c.32,0,.57-.13,.68-.41,.03-.07,.07-.11,.14-.11,.08,0,.14,.06,.14,.14,0,.05-.01,.1-.04,.15-.16,.32-.48,.51-.92,.51-.67,0-1.1-.49-1.1-1.26m4.23,1.11s0-.05,.02-.08l.78-2.12c.04-.1,.1-.15,.2-.15,.09,0,.15,.05,.19,.15l.79,2.12s.02,.06,.02,.08c0,.08-.06,.13-.15,.13-.08,0-.12-.04-.15-.12l-.22-.61h-.97l-.21,.61c-.03,.08-.07,.12-.15,.12-.09,0-.15-.06-.15-.13m1.39-.85l-.39-1.11h-.01l-.39,1.11h.79Zm2.84,.83v-2.16c0-.1,.06-.16,.15-.16h.76c.47,0,.78,.29,.78,.73,0,.34-.18,.6-.49,.7l.45,.8s.03,.07,.03,.11c0,.08-.07,.14-.16,.14-.07,0-.11-.03-.15-.1l-.49-.9h-.58v.84c0,.09-.06,.16-.15,.16s-.15-.06-.15-.16m.89-1.11c.31,0,.49-.17,.49-.47s-.19-.47-.5-.47h-.57v.94h.58Zm3.09,1.08v-2.13c0-.1,.06-.16,.15-.16h1.24c.09,0,.15,.06,.15,.14s-.06,.14-.15,.14h-1.09v.78h1.03c.08,0,.14,.05,.14,.14s-.06,.14-.14,.14h-1.03v.84h1.09c.09,0,.15,.06,.15,.14s-.06,.14-.15,.14h-1.24c-.09,0-.15-.06-.15-.16"/>
  <g>
    <path class="cls-1" d="M389.07,380.75h-1.53l-.33,1.43h1.37v1.05h-1.62l-.48,1.95h-1.13l.49-1.95h-1.25l-.47,1.95h-1.13l.48-1.95h-1.17v-1.05h1.42l.34-1.43h-1.28v-.98h1.52l.49-2.01h1.13l-.5,2.01h1.25l.48-2.01h1.13l-.49,2.01h1.27v.98Zm-2.98,1.43l.33-1.43h-1.24l-.34,1.43h1.25Z"/>
    <path class="cls-1" d="M394.64,379.7s-.14-.11-.27-.2c-.13-.08-.29-.17-.47-.25s-.39-.15-.6-.2c-.22-.06-.44-.08-.66-.08-.4,0-.69,.07-.89,.22s-.29,.35-.29,.62c0,.15,.04,.28,.11,.38,.07,.1,.18,.19,.32,.27s.32,.15,.53,.21c.21,.06,.46,.13,.74,.2,.36,.1,.69,.2,.99,.31,.3,.11,.55,.25,.75,.42,.21,.17,.36,.37,.48,.6s.17,.52,.17,.86c0,.4-.07,.74-.22,1.02-.15,.28-.35,.51-.61,.68-.25,.17-.55,.3-.88,.38-.33,.08-.68,.12-1.04,.12-.56,0-1.11-.08-1.65-.25-.54-.17-1.03-.4-1.46-.71l.64-1.24c.06,.06,.18,.14,.34,.25,.16,.1,.36,.2,.58,.3,.22,.1,.47,.19,.74,.26,.27,.07,.55,.1,.84,.1,.79,0,1.19-.25,1.19-.76,0-.16-.05-.3-.14-.41-.09-.11-.22-.21-.39-.29-.17-.08-.37-.16-.61-.23-.24-.07-.5-.15-.79-.23-.36-.1-.66-.2-.92-.32-.26-.12-.48-.25-.65-.41s-.3-.34-.39-.54c-.09-.21-.13-.45-.13-.74,0-.38,.07-.71,.21-1s.33-.54,.58-.73,.53-.34,.86-.44c.33-.1,.68-.15,1.06-.15,.52,0,1,.08,1.44,.25,.44,.16,.82,.36,1.15,.58l-.64,1.17Z"/>
    <path class="cls-1" d="M396.62,385.18v-7.41h1.44v3.52l3.11-3.53h1.59l-2.84,3.29,3.02,4.13h-1.62l-2.31-3.21-.95,.99v2.22h-1.44Z"/>
    <path class="cls-1" d="M403.73,385.18v-7.42h.94v7.42h-.94Z"/>
    <path class="cls-1" d="M407.39,379.51v5.66h-.94v-7.42h.73l4.6,5.78v-5.77h.94v7.41h-.79l-4.54-5.66Z"/>
    <path class="cls-1" d="M414.49,385.18v-7.42h3.09c.33,0,.63,.07,.9,.2s.51,.32,.71,.54c.2,.23,.35,.48,.47,.76,.11,.28,.17,.57,.17,.86s-.05,.6-.16,.89c-.1,.29-.25,.54-.44,.76-.19,.22-.42,.4-.69,.53-.27,.13-.57,.2-.89,.2h-2.22v2.67h-.94Zm.94-3.5h2.16c.2,0,.37-.04,.53-.12s.29-.19,.4-.33c.11-.14,.2-.31,.26-.5,.06-.19,.09-.39,.09-.6s-.04-.42-.11-.61c-.07-.19-.17-.35-.29-.49-.12-.14-.26-.25-.43-.32-.16-.08-.34-.11-.52-.11h-2.1v3.08Z"/>
    <path class="cls-1" d="M426.04,384.34v.84h-5.04v-7.42h4.94v.84h-4v2.4h3.48v.78h-3.48v2.56h4.1Z"/>
    <path class="cls-1" d="M427.33,385.18v-7.42h3.18c.33,0,.63,.07,.9,.2,.27,.14,.51,.32,.71,.54s.35,.48,.47,.76c.11,.28,.17,.57,.17,.86,0,.26-.04,.51-.11,.75-.07,.24-.18,.46-.31,.65-.14,.2-.3,.36-.49,.5-.19,.14-.41,.24-.64,.3l1.8,2.84h-1.07l-1.69-2.67h-1.96v2.67h-.94Zm.94-3.5h2.25c.2,0,.37-.04,.53-.13,.16-.08,.29-.2,.4-.34,.11-.14,.2-.31,.26-.5,.06-.19,.09-.38,.09-.59s-.04-.41-.11-.59c-.07-.18-.17-.35-.29-.49-.12-.14-.27-.25-.43-.33-.16-.08-.34-.12-.52-.12h-2.18v3.08Z"/>
    <path class="cls-1" d="M434.19,385.18v-7.42h4.9v.84h-3.96v2.48h3.33v.78h-3.33v3.32h-.94Z"/>
    <path class="cls-1" d="M445.32,384.34v.84h-5.04v-7.42h4.94v.84h-4v2.4h3.48v.78h-3.48v2.56h4.1Z"/>
    <path class="cls-1" d="M445.98,381.41c0-.45,.08-.89,.24-1.33,.16-.44,.39-.84,.69-1.19s.67-.64,1.11-.85,.94-.32,1.49-.32c.66,0,1.23,.15,1.7,.45s.83,.69,1.06,1.17l-.74,.48c-.11-.24-.25-.44-.4-.6s-.33-.29-.51-.39c-.18-.1-.37-.17-.57-.21-.2-.04-.39-.06-.57-.06-.41,0-.78,.09-1.09,.26-.32,.17-.58,.39-.8,.67-.22,.28-.38,.59-.49,.93s-.16,.69-.16,1.04c0,.39,.06,.76,.19,1.11s.31,.66,.54,.94c.23,.27,.5,.49,.82,.65s.65,.24,1.02,.24c.2,0,.4-.02,.6-.07s.4-.13,.59-.24c.19-.11,.36-.24,.53-.41s.3-.36,.4-.59l.78,.43c-.12,.28-.28,.52-.5,.74s-.45,.39-.72,.54c-.27,.15-.55,.26-.85,.33-.3,.08-.59,.12-.88,.12-.51,0-.98-.11-1.4-.33-.43-.22-.79-.51-1.1-.87-.31-.36-.55-.77-.72-1.22-.17-.46-.26-.92-.26-1.39Z"/>
    <path class="cls-1" d="M458.94,378.59h-2.56v6.58h-.94v-6.58h-2.56v-.84h6.06v.84Z"/>
    <path class="cls-1" d="M460.01,385.18v-7.42h.94v7.42h-.94Z"/>
    <path class="cls-1" d="M465.74,385.23c-.52,0-1-.11-1.43-.32s-.8-.49-1.1-.85c-.31-.35-.54-.75-.71-1.21-.17-.45-.25-.92-.25-1.39s.09-.97,.27-1.42c.18-.45,.42-.85,.74-1.2,.31-.35,.68-.63,1.11-.83,.43-.21,.89-.31,1.4-.31s1,.11,1.42,.33c.42,.22,.79,.51,1.1,.86,.31,.36,.54,.76,.71,1.21s.25,.91,.25,1.37c0,.49-.09,.97-.27,1.42-.18,.45-.42,.85-.73,1.2s-.68,.62-1.11,.83c-.43,.21-.89,.31-1.39,.31Zm-2.54-3.76c0,.38,.06,.74,.18,1.09,.12,.35,.29,.66,.52,.94,.22,.27,.49,.49,.8,.65s.66,.24,1.05,.24,.75-.09,1.07-.26c.31-.17,.58-.39,.8-.67,.22-.27,.39-.59,.5-.94,.11-.35,.17-.7,.17-1.06,0-.38-.06-.74-.18-1.09-.12-.35-.3-.66-.52-.93-.23-.27-.49-.48-.8-.64-.31-.16-.65-.24-1.03-.24-.4,0-.75,.08-1.07,.25s-.58,.39-.8,.66c-.22,.27-.39,.58-.51,.93-.12,.35-.18,.7-.18,1.07Z"/>
    <path class="cls-1" d="M471.48,379.51v5.66h-.94v-7.42h.73l4.6,5.78v-5.77h.94v7.41h-.79l-4.54-5.66Z"/>
  </g>
</svg>